<svg width="1920" height="1080" viewBox="0 0 1920 1080" fill="none" xmlns="http://www.w3.org/2000/svg">
<g clip-path="url(#clip0_2004_427)">
<mask id="mask0_2004_427" style="mask-type:luminance" maskUnits="userSpaceOnUse" x="0" y="0" width="1920" height="1080">
<path d="M1920 0H0V1080H1920V0Z" fill="white"/>
</mask>
<g mask="url(#mask0_2004_427)">
<path d="M1920 0H0V1080H1920V0Z" fill="#F50000"/>
<path d="M218.031 929.005C1121.03 1260.98 1989.01 1160.32 2156.71 704.157C2324.41 247.997 1728.34 -390.917 825.337 -722.897C-77.6625 -1054.88 -945.639 -954.209 -1113.34 -498.049C-1281.05 -41.8886 -684.969 597.025 218.031 929.005Z" fill="#CC0000" fill-opacity="0.4"/>
<path d="M430.156 1009.13C1390.11 1073.21 2194.55 732.049 2226.92 247.118C2259.3 -237.813 1507.34 -682.879 547.39 -746.964C-412.564 -811.049 -1217 -469.885 -1249.38 15.0457C-1281.75 499.977 -529.798 945.042 430.156 1009.13Z" fill="#CC0000" fill-opacity="0.4"/>
<g opacity="0.7" filter="url(#filter0_f_2004_427)">
<path fill-rule="evenodd" clip-rule="evenodd" d="M-59.4445 533.478C-176.769 560.506 -257.076 595.993 -284.995 638.172C-370.602 767.502 68.7401 910.777 696.302 958.187C1251.46 1000.13 1767.95 952.995 1938.99 852.029C1679.6 917.237 1193.34 915.974 725.379 839.964C266.251 765.39 -37.5309 641.236 -59.4445 533.478Z" fill="url(#paint0_linear_2004_427)"/>
</g>
<g opacity="0.6" filter="url(#filter1_f_2004_427)">
<path fill-rule="evenodd" clip-rule="evenodd" d="M1819.97 888.456C1570.97 943.931 1130.4 926.424 708.332 834.542C267.819 738.644 -16.0091 591.451 -15.2585 474.382C-115.097 499.224 -183.906 532.884 -209.739 574.187C-294.065 709.012 111.503 874.211 696.122 943.171C1175.71 999.74 1626.81 973.972 1819.97 888.456Z" fill="url(#paint1_linear_2004_427)"/>
</g>
<g opacity="0.6" filter="url(#filter2_f_2004_427)">
<path fill-rule="evenodd" clip-rule="evenodd" d="M1838.97 888.213C1570.79 924.279 1094.89 906.696 638.075 836.993C161.299 764.245 -146.914 657.27 -147.502 574.893C-255.003 591.183 -328.896 614.049 -356.294 642.806C-445.732 736.68 -5.85919 857.782 626.189 913.294C1144.68 958.832 1631.43 946.086 1838.97 888.213Z" fill="url(#paint2_linear_2004_427)"/>
</g>
<path style="mix-blend-mode:screen" d="M158.316 842.042C192.235 842.042 219.732 814.545 219.732 780.626C219.732 746.707 192.235 719.211 158.316 719.211C124.397 719.211 96.9004 746.707 96.9004 780.626C96.9004 814.545 124.397 842.042 158.316 842.042Z" fill="url(#paint3_radial_2004_427)"/>
<path style="mix-blend-mode:screen" opacity="0.57" d="M158.319 851.948C168.969 851.948 177.602 820.017 177.602 780.628C177.602 741.238 168.969 709.307 158.319 709.307C147.669 709.307 139.036 741.238 139.036 780.628C139.036 820.017 147.669 851.948 158.319 851.948Z" fill="url(#paint4_radial_2004_427)"/>
<path style="mix-blend-mode:screen" d="M158.318 798.929C212.066 798.929 255.636 790.735 255.636 780.627C255.636 770.52 212.066 762.326 158.318 762.326C104.571 762.326 61 770.52 61 780.627C61 790.735 104.571 798.929 158.318 798.929Z" fill="url(#paint5_radial_2004_427)"/>
<path style="mix-blend-mode:screen" d="M249.109 871.421C252.334 868.196 214.3 824.933 164.158 774.791C114.016 724.649 70.7532 686.615 67.5278 689.84C64.3025 693.066 102.336 736.328 152.478 786.471C202.621 836.613 245.883 874.646 249.109 871.421Z" fill="url(#paint6_radial_2004_427)"/>
<path style="mix-blend-mode:screen" d="M1931.24 886.693C1936.51 853.186 1913.62 821.751 1880.11 816.481C1846.61 811.211 1815.17 834.102 1809.9 867.609C1804.63 901.116 1827.52 932.551 1861.03 937.821C1894.54 943.091 1925.97 920.2 1931.24 886.693Z" fill="url(#paint7_radial_2004_427)"/>
<path style="mix-blend-mode:screen" opacity="0.57" d="M1941.03 888.229C1942.68 877.709 1912.48 864.219 1873.57 858.1C1834.66 851.98 1801.77 855.547 1800.12 866.068C1798.47 876.588 1828.67 890.078 1867.58 896.197C1906.49 902.317 1939.37 898.75 1941.03 888.229Z" fill="url(#paint8_radial_2004_427)"/>
<path style="mix-blend-mode:screen" d="M1888.65 879.992C1897 826.898 1895.68 782.583 1885.69 781.012C1875.71 779.442 1860.84 821.211 1852.49 874.306C1844.14 927.4 1845.47 971.715 1855.45 973.286C1865.44 974.856 1880.3 933.087 1888.65 879.992Z" fill="url(#paint9_radial_2004_427)"/>
<path style="mix-blend-mode:screen" d="M1974.37 801.567C1971.69 797.88 1923.04 828.73 1865.72 870.473C1808.39 912.216 1764.1 949.045 1766.78 952.732C1769.47 956.419 1818.12 925.569 1875.44 883.826C1932.76 842.083 1977.06 805.254 1974.37 801.567Z" fill="url(#paint10_radial_2004_427)"/>
</g>
</g>
<defs>
<filter id="filter0_f_2004_427" x="-297.655" y="531.478" width="2238.65" height="444.016" filterUnits="userSpaceOnUse" color-interpolation-filters="sRGB">
<feFlood flood-opacity="0" result="BackgroundImageFix"/>
<feBlend mode="normal" in="SourceGraphic" in2="BackgroundImageFix" result="shape"/>
<feGaussianBlur stdDeviation="1" result="effect1_foregroundBlur_2004_427"/>
</filter>
<filter id="filter1_f_2004_427" x="-222.832" y="472.382" width="2044.8" height="502.925" filterUnits="userSpaceOnUse" color-interpolation-filters="sRGB">
<feFlood flood-opacity="0" result="BackgroundImageFix"/>
<feBlend mode="normal" in="SourceGraphic" in2="BackgroundImageFix" result="shape"/>
<feGaussianBlur stdDeviation="1" result="effect1_foregroundBlur_2004_427"/>
</filter>
<filter id="filter2_f_2004_427" x="-369.84" y="572.893" width="2210.81" height="369.927" filterUnits="userSpaceOnUse" color-interpolation-filters="sRGB">
<feFlood flood-opacity="0" result="BackgroundImageFix"/>
<feBlend mode="normal" in="SourceGraphic" in2="BackgroundImageFix" result="shape"/>
<feGaussianBlur stdDeviation="1" result="effect1_foregroundBlur_2004_427"/>
</filter>
<linearGradient id="paint0_linear_2004_427" x1="1393.27" y1="679.028" x2="1324.46" y2="1067.25" gradientUnits="userSpaceOnUse">
<stop stop-color="#FAC67E"/>
<stop offset="0.175" stop-color="white" stop-opacity="0.6"/>
<stop offset="0.47" stop-color="#F5B145"/>
<stop offset="0.67" stop-color="#FF8011"/>
<stop offset="0.835" stop-color="white"/>
<stop offset="1" stop-color="#EAD95C"/>
</linearGradient>
<linearGradient id="paint1_linear_2004_427" x1="1333.56" y1="695.834" x2="1238.22" y2="1101.9" gradientUnits="userSpaceOnUse">
<stop stop-color="#FAC67E"/>
<stop offset="0.175" stop-color="white" stop-opacity="0.6"/>
<stop offset="0.47" stop-color="#F5B145"/>
<stop offset="0.67" stop-color="#FF8011"/>
<stop offset="0.835" stop-color="white"/>
<stop offset="1" stop-color="#EAD95C"/>
</linearGradient>
<linearGradient id="paint2_linear_2004_427" x1="1311.49" y1="746.848" x2="1263.56" y2="1039.69" gradientUnits="userSpaceOnUse">
<stop stop-color="#FAC67E"/>
<stop offset="0.175" stop-color="white" stop-opacity="0.6"/>
<stop offset="0.47" stop-color="#F5B145"/>
<stop offset="0.67" stop-color="#FF8011"/>
<stop offset="0.835" stop-color="white"/>
<stop offset="1" stop-color="#EAD95C"/>
</linearGradient>
<radialGradient id="paint3_radial_2004_427" cx="0" cy="0" r="1" gradientUnits="userSpaceOnUse" gradientTransform="translate(158.316 780.626) scale(59.7698 59.7698)">
<stop stop-color="#29ABE2"/>
<stop offset="0.49" stop-color="#155976"/>
<stop offset="1"/>
</radialGradient>
<radialGradient id="paint4_radial_2004_427" cx="0" cy="0" r="1" gradientUnits="userSpaceOnUse" gradientTransform="translate(180.412 779.052) scale(18.6188 69.2388)">
<stop stop-color="#BFEAFF"/>
<stop offset="0.43" stop-color="#6E8793"/>
<stop offset="1"/>
</radialGradient>
<radialGradient id="paint5_radial_2004_427" cx="0" cy="0" r="1" gradientUnits="userSpaceOnUse" gradientTransform="translate(159.722 812.299) rotate(-90) scale(18.037 94.8397)">
<stop stop-color="#BFEAFF"/>
<stop offset="0.43" stop-color="#6E8793"/>
<stop offset="1"/>
</radialGradient>
<radialGradient id="paint6_radial_2004_427" cx="0" cy="0" r="1" gradientUnits="userSpaceOnUse" gradientTransform="translate(152.538 784.753) rotate(135) scale(8.14407 125.07)">
<stop stop-color="#B274AA"/>
<stop offset="0.61" stop-color="#482F44"/>
<stop offset="1"/>
</radialGradient>
<radialGradient id="paint7_radial_2004_427" cx="0" cy="0" r="1" gradientUnits="userSpaceOnUse" gradientTransform="translate(1870.57 877.151) rotate(-81.062) scale(59.7698 59.7698)">
<stop stop-color="#29ABE2"/>
<stop offset="0.49" stop-color="#155976"/>
<stop offset="1"/>
</radialGradient>
<radialGradient id="paint8_radial_2004_427" cx="0" cy="0" r="1" gradientUnits="userSpaceOnUse" gradientTransform="translate(1872.45 855.078) rotate(-81.062) scale(18.6188 69.2388)">
<stop stop-color="#BFEAFF"/>
<stop offset="0.43" stop-color="#6E8793"/>
<stop offset="1"/>
</radialGradient>
<radialGradient id="paint9_radial_2004_427" cx="0" cy="0" r="1" gradientUnits="userSpaceOnUse" gradientTransform="translate(1902.08 880.683) rotate(-171.062) scale(18.037 94.8397)">
<stop stop-color="#BFEAFF"/>
<stop offset="0.43" stop-color="#6E8793"/>
<stop offset="1"/>
</radialGradient>
<radialGradient id="paint10_radial_2004_427" cx="0" cy="0" r="1" gradientUnits="userSpaceOnUse" gradientTransform="translate(1873.75 883.5) rotate(53.938) scale(8.14407 125.07)">
<stop stop-color="#B274AA"/>
<stop offset="0.61" stop-color="#482F44"/>
<stop offset="1"/>
</radialGradient>
<clipPath id="clip0_2004_427">
<rect width="1920" height="1080" fill="white"/>
</clipPath>
</defs>
</svg>
