<svg width="940" height="940" viewBox="0 0 1032 1035" fill="none" xmlns="http://www.w3.org/2000/svg">
<path style="mix-blend-mode:screen" d="M575.214 837C589.022 837 600.214 825.807 600.214 812C600.214 798.193 589.022 787 575.214 787C561.407 787 550.214 798.193 550.214 812C550.214 825.807 561.407 837 575.214 837Z" fill="url(#paint0_radial_2008_453)"/>
<path d="M575.213 828.663C583.102 828.663 589.498 821.773 589.498 813.273C589.498 804.774 583.102 797.883 575.213 797.883C567.323 797.883 560.928 804.774 560.928 813.273C560.928 821.773 567.323 828.663 575.213 828.663Z" />
<path d="M575.213 826.453C583.102 826.453 589.498 820.058 589.498 812.168C589.498 804.279 583.102 797.883 575.213 797.883C567.323 797.883 560.928 804.279 560.928 812.168C560.928 820.058 567.323 826.453 575.213 826.453Z" fill="white"/>
<path d="M575.213 823.734C580.802 823.734 585.333 818.879 585.333 812.891C585.333 806.903 580.802 802.049 575.213 802.049C569.625 802.049 565.094 806.903 565.094 812.891C565.094 818.879 569.625 823.734 575.213 823.734Z" />
<path d="M575.213 822.287C580.802 822.287 585.333 817.757 585.333 812.168C585.333 806.579 580.802 802.049 575.213 802.049C569.625 802.049 565.094 806.579 565.094 812.168C565.094 817.757 569.625 822.287 575.213 822.287Z" fill="#F0EA8F"/>
<path d="M575.215 816.502C578.407 816.502 580.995 813.914 580.995 810.722C580.995 807.529 578.407 804.941 575.215 804.941C572.023 804.941 569.435 807.529 569.435 810.722C569.435 813.914 572.023 816.502 575.215 816.502Z" fill="white"/>
<path style="mix-blend-mode:screen" d="M579.531 879.042C613.449 879.042 640.946 851.545 640.946 817.626C640.946 783.707 613.449 756.211 579.531 756.211C545.612 756.211 518.115 783.707 518.115 817.626C518.115 851.545 545.612 879.042 579.531 879.042Z" fill="url(#paint1_radial_2008_453)"/>
<path style="mix-blend-mode:screen" opacity="0.57" d="M579.533 888.948C590.183 888.948 598.816 857.017 598.816 817.628C598.816 778.238 590.183 746.307 579.533 746.307C568.884 746.307 560.25 778.238 560.25 817.628C560.25 857.017 568.884 888.948 579.533 888.948Z" fill="url(#paint2_radial_2008_453)"/>
<path style="mix-blend-mode:screen" d="M579.533 835.929C633.28 835.929 676.851 827.735 676.851 817.627C676.851 807.52 633.28 799.326 579.533 799.326C525.785 799.326 482.214 807.52 482.214 817.627C482.214 827.735 525.785 835.929 579.533 835.929Z" fill="url(#paint3_radial_2008_453)"/>
<path style="mix-blend-mode:screen" d="M670.323 908.421C673.549 905.196 635.515 861.933 585.373 811.791C535.231 761.648 491.968 723.615 488.742 726.84C485.517 730.065 523.551 773.328 573.693 823.471C623.835 873.613 667.098 911.646 670.323 908.421Z" fill="url(#paint4_radial_2008_453)"/>
<path style="mix-blend-mode:screen" d="M307 677C320.807 677 332 665.807 332 652C332 638.193 320.807 627 307 627C293.193 627 282 638.193 282 652C282 665.807 293.193 677 307 677Z" fill="url(#paint5_radial_2008_453)"/>
<path d="M306.998 668.663C314.888 668.663 321.283 661.773 321.283 653.273C321.283 644.774 314.888 637.883 306.998 637.883C299.109 637.883 292.713 644.774 292.713 653.273C292.713 661.773 299.109 668.663 306.998 668.663Z" />
<path d="M306.998 666.453C314.888 666.453 321.283 660.058 321.283 652.168C321.283 644.279 314.888 637.883 306.998 637.883C299.109 637.883 292.713 644.279 292.713 652.168C292.713 660.058 299.109 666.453 306.998 666.453Z" fill="white"/>
<path d="M306.999 663.734C312.588 663.734 317.118 658.879 317.118 652.891C317.118 646.903 312.588 642.049 306.999 642.049C301.41 642.049 296.88 646.903 296.88 652.891C296.88 658.879 301.41 663.734 306.999 663.734Z" />
<path d="M306.999 662.287C312.588 662.287 317.118 657.757 317.118 652.168C317.118 646.579 312.588 642.049 306.999 642.049C301.41 642.049 296.88 646.579 296.88 652.168C296.88 657.757 301.41 662.287 306.999 662.287Z" fill="#F0EA8F"/>
<path d="M307.001 656.502C310.193 656.502 312.781 653.914 312.781 650.722C312.781 647.529 310.193 644.941 307.001 644.941C303.808 644.941 301.22 647.529 301.22 650.722C301.22 653.914 303.808 656.502 307.001 656.502Z" fill="white"/>
<path style="mix-blend-mode:screen" d="M311.316 719.042C345.235 719.042 372.732 691.545 372.732 657.626C372.732 623.707 345.235 596.211 311.316 596.211C277.397 596.211 249.9 623.707 249.9 657.626C249.9 691.545 277.397 719.042 311.316 719.042Z" fill="url(#paint6_radial_2008_453)"/>
<path style="mix-blend-mode:screen" opacity="0.57" d="M311.319 728.948C321.969 728.948 330.602 697.017 330.602 657.628C330.602 618.238 321.969 586.307 311.319 586.307C300.669 586.307 292.036 618.238 292.036 657.628C292.036 697.017 300.669 728.948 311.319 728.948Z" fill="url(#paint7_radial_2008_453)"/>
<path style="mix-blend-mode:screen" d="M311.318 675.929C365.066 675.929 408.636 667.735 408.636 657.627C408.636 647.52 365.066 639.326 311.318 639.326C257.571 639.326 214 647.52 214 657.627C214 667.735 257.571 675.929 311.318 675.929Z" fill="url(#paint8_radial_2008_453)"/>
<path style="mix-blend-mode:screen" d="M402.109 748.421C405.334 745.196 367.3 701.933 317.158 651.791C267.016 601.648 223.753 563.615 220.528 566.84C217.303 570.065 255.336 613.328 305.478 663.471C355.621 713.613 398.883 751.646 402.109 748.421Z" fill="url(#paint9_radial_2008_453)"/>
<path style="mix-blend-mode:screen" d="M813 659C826.807 659 838 647.807 838 634C838 620.193 826.807 609 813 609C799.193 609 788 620.193 788 634C788 647.807 799.193 659 813 659Z" fill="url(#paint10_radial_2008_453)"/>
<path d="M812.998 650.663C820.888 650.663 827.283 643.773 827.283 635.273C827.283 626.774 820.888 619.883 812.998 619.883C805.109 619.883 798.713 626.774 798.713 635.273C798.713 643.773 805.109 650.663 812.998 650.663Z" />
<path d="M812.998 648.453C820.888 648.453 827.283 642.058 827.283 634.168C827.283 626.279 820.888 619.883 812.998 619.883C805.109 619.883 798.713 626.279 798.713 634.168C798.713 642.058 805.109 648.453 812.998 648.453Z" fill="white"/>
<path d="M812.999 645.734C818.588 645.734 823.118 640.879 823.118 634.891C823.118 628.903 818.588 624.049 812.999 624.049C807.41 624.049 802.88 628.903 802.88 634.891C802.88 640.879 807.41 645.734 812.999 645.734Z" />
<path d="M812.999 644.287C818.588 644.287 823.118 639.757 823.118 634.168C823.118 628.579 818.588 624.049 812.999 624.049C807.41 624.049 802.88 628.579 802.88 634.168C802.88 639.757 807.41 644.287 812.999 644.287Z" fill="#F0EA8F"/>
<path d="M813.001 638.502C816.193 638.502 818.781 635.914 818.781 632.722C818.781 629.529 816.193 626.941 813.001 626.941C809.808 626.941 807.22 629.529 807.22 632.722C807.22 635.914 809.808 638.502 813.001 638.502Z" fill="white"/>
<path style="mix-blend-mode:screen" d="M817.316 701.042C851.235 701.042 878.732 673.545 878.732 639.626C878.732 605.707 851.235 578.211 817.316 578.211C783.397 578.211 755.9 605.707 755.9 639.626C755.9 673.545 783.397 701.042 817.316 701.042Z" fill="url(#paint11_radial_2008_453)"/>
<path style="mix-blend-mode:screen" opacity="0.57" d="M817.319 710.948C827.969 710.948 836.602 679.017 836.602 639.628C836.602 600.238 827.969 568.307 817.319 568.307C806.669 568.307 798.036 600.238 798.036 639.628C798.036 679.017 806.669 710.948 817.319 710.948Z" fill="url(#paint12_radial_2008_453)"/>
<path style="mix-blend-mode:screen" d="M817.318 657.929C871.066 657.929 914.636 649.735 914.636 639.627C914.636 629.52 871.066 621.326 817.318 621.326C763.571 621.326 720 629.52 720 639.627C720 649.735 763.571 657.929 817.318 657.929Z" fill="url(#paint13_radial_2008_453)"/>
<path style="mix-blend-mode:screen" d="M908.109 730.421C911.334 727.196 873.3 683.933 823.158 633.791C773.016 583.648 729.753 545.615 726.528 548.84C723.303 552.065 761.336 595.328 811.478 645.471C861.621 695.613 904.883 733.646 908.109 730.421Z" fill="url(#paint14_radial_2008_453)"/>
<path style="mix-blend-mode:screen" d="M809.776 458.992C823.583 458.992 834.776 447.799 834.776 433.992C834.776 420.184 823.583 408.992 809.776 408.992C795.969 408.992 784.776 420.184 784.776 433.992C784.776 447.799 795.969 458.992 809.776 458.992Z" fill="url(#paint15_radial_2008_453)"/>
<path d="M809.774 450.655C817.664 450.655 824.059 443.765 824.059 435.265C824.059 426.765 817.664 419.875 809.774 419.875C801.885 419.875 795.49 426.765 795.49 435.265C795.49 443.765 801.885 450.655 809.774 450.655Z" />
<path d="M809.774 448.445C817.664 448.445 824.059 442.049 824.059 434.16C824.059 426.27 817.664 419.875 809.774 419.875C801.885 419.875 795.49 426.27 795.49 434.16C795.49 442.049 801.885 448.445 809.774 448.445Z" fill="white"/>
<path d="M809.775 445.725C815.364 445.725 819.894 440.871 819.894 434.883C819.894 428.895 815.364 424.041 809.775 424.041C804.187 424.041 799.656 428.895 799.656 434.883C799.656 440.871 804.187 445.725 809.775 445.725Z" />
<path d="M809.775 444.279C815.364 444.279 819.894 439.748 819.894 434.16C819.894 428.571 815.364 424.041 809.775 424.041C804.187 424.041 799.656 428.571 799.656 434.16C799.656 439.748 804.187 444.279 809.775 444.279Z" fill="#F0EA8F"/>
<path d="M809.777 438.493C812.969 438.493 815.557 435.906 815.557 432.713C815.557 429.521 812.969 426.933 809.777 426.933C806.584 426.933 803.997 429.521 803.997 432.713C803.997 435.906 806.584 438.493 809.777 438.493Z" fill="white"/>
<path style="mix-blend-mode:screen" d="M814.092 501.033C848.011 501.033 875.508 473.537 875.508 439.618C875.508 405.699 848.011 378.202 814.092 378.202C780.173 378.202 752.677 405.699 752.677 439.618C752.677 473.537 780.173 501.033 814.092 501.033Z" fill="url(#paint16_radial_2008_453)"/>
<path style="mix-blend-mode:screen" opacity="0.57" d="M814.095 510.94C824.745 510.94 833.378 479.008 833.378 439.619C833.378 400.23 824.745 368.299 814.095 368.299C803.446 368.299 794.812 400.23 794.812 439.619C794.812 479.008 803.446 510.94 814.095 510.94Z" fill="url(#paint17_radial_2008_453)"/>
<path style="mix-blend-mode:screen" d="M814.094 457.92C867.842 457.92 911.413 449.726 911.413 439.619C911.413 429.511 867.842 421.317 814.094 421.317C760.347 421.317 716.776 429.511 716.776 439.619C716.776 449.726 760.347 457.92 814.094 457.92Z" fill="url(#paint18_radial_2008_453)"/>
<path style="mix-blend-mode:screen" d="M904.885 530.413C908.11 527.187 870.077 483.924 819.935 433.782C769.792 383.64 726.529 345.606 723.304 348.832C720.079 352.057 758.112 395.32 808.255 445.462C858.397 495.604 901.66 533.638 904.885 530.413Z" fill="url(#paint19_radial_2008_453)"/>
<path style="mix-blend-mode:screen" d="M282 562.052C295.807 562.052 307 550.859 307 537.052C307 523.245 295.807 512.052 282 512.052C268.193 512.052 257 523.245 257 537.052C257 550.859 268.193 562.052 282 562.052Z" fill="url(#paint20_radial_2008_453)"/>
<path d="M281.998 553.716C289.888 553.716 296.283 546.825 296.283 538.325C296.283 529.826 289.888 522.935 281.998 522.935C274.109 522.935 267.713 529.826 267.713 538.325C267.713 546.825 274.109 553.716 281.998 553.716Z" />
<path d="M281.998 551.505C289.888 551.505 296.283 545.11 296.283 537.22C296.283 529.331 289.888 522.935 281.998 522.935C274.109 522.935 267.713 529.331 267.713 537.22C267.713 545.11 274.109 551.505 281.998 551.505Z" fill="white"/>
<path d="M281.999 548.786C287.588 548.786 292.118 543.931 292.118 537.943C292.118 531.955 287.588 527.101 281.999 527.101C276.41 527.101 271.88 531.955 271.88 537.943C271.88 543.931 276.41 548.786 281.999 548.786Z" />
<path d="M281.999 547.339C287.588 547.339 292.118 542.809 292.118 537.22C292.118 531.632 287.588 527.101 281.999 527.101C276.41 527.101 271.88 531.632 271.88 537.22C271.88 542.809 276.41 547.339 281.999 547.339Z" fill="#F0EA8F"/>
<path d="M282.001 541.554C285.193 541.554 287.781 538.966 287.781 535.774C287.781 532.582 285.193 529.994 282.001 529.994C278.808 529.994 276.22 532.582 276.22 535.774C276.22 538.966 278.808 541.554 282.001 541.554Z" fill="white"/>
<path style="mix-blend-mode:screen" d="M286.316 604.094C320.235 604.094 347.732 576.597 347.732 542.678C347.732 508.759 320.235 481.263 286.316 481.263C252.397 481.263 224.9 508.759 224.9 542.678C224.9 576.597 252.397 604.094 286.316 604.094Z" fill="url(#paint21_radial_2008_453)"/>
<path style="mix-blend-mode:screen" opacity="0.57" d="M286.319 614C296.969 614 305.602 582.069 305.602 542.68C305.602 503.291 296.969 471.359 286.319 471.359C275.669 471.359 267.036 503.291 267.036 542.68C267.036 582.069 275.669 614 286.319 614Z" fill="url(#paint22_radial_2008_453)"/>
<path style="mix-blend-mode:screen" d="M286.318 560.981C340.066 560.981 383.636 552.787 383.636 542.679C383.636 532.572 340.066 524.378 286.318 524.378C232.571 524.378 189 532.572 189 542.679C189 552.787 232.571 560.981 286.318 560.981Z" fill="url(#paint23_radial_2008_453)"/>
<path style="mix-blend-mode:screen" d="M377.109 633.473C380.334 630.248 342.3 586.985 292.158 536.843C242.016 486.701 198.753 448.667 195.528 451.892C192.303 455.118 230.336 498.381 280.478 548.523C330.621 598.665 373.883 636.699 377.109 633.473Z" fill="url(#paint24_radial_2008_453)"/>
<path style="mix-blend-mode:screen" d="M830.648 561.183C844.455 561.183 855.648 549.99 855.648 536.183C855.648 522.376 844.455 511.183 830.648 511.183C816.841 511.183 805.648 522.376 805.648 536.183C805.648 549.99 816.841 561.183 830.648 561.183Z" fill="url(#paint25_radial_2008_453)"/>
<path d="M830.647 552.846C838.536 552.846 844.932 545.956 844.932 537.456C844.932 528.957 838.536 522.066 830.647 522.066C822.757 522.066 816.362 528.957 816.362 537.456C816.362 545.956 822.757 552.846 830.647 552.846Z" />
<path d="M830.647 550.636C838.536 550.636 844.932 544.241 844.932 536.351C844.932 528.462 838.536 522.066 830.647 522.066C822.757 522.066 816.362 528.462 816.362 536.351C816.362 544.241 822.757 550.636 830.647 550.636Z" fill="white"/>
<path d="M830.647 547.917C836.236 547.917 840.766 543.062 840.766 537.074C840.766 531.086 836.236 526.232 830.647 526.232C825.059 526.232 820.528 531.086 820.528 537.074C820.528 543.062 825.059 547.917 830.647 547.917Z" />
<path d="M830.647 546.47C836.236 546.47 840.766 541.94 840.766 536.351C840.766 530.763 836.236 526.232 830.647 526.232C825.059 526.232 820.528 530.763 820.528 536.351C820.528 541.94 825.059 546.47 830.647 546.47Z" fill="#F0EA8F"/>
<path d="M830.649 540.685C833.841 540.685 836.429 538.097 836.429 534.905C836.429 531.712 833.841 529.125 830.649 529.125C827.457 529.125 824.869 531.712 824.869 534.905C824.869 538.097 827.457 540.685 830.649 540.685Z" fill="white"/>
<path style="mix-blend-mode:screen" d="M671.404 315C685.211 315 696.404 303.807 696.404 290C696.404 276.193 685.211 265 671.404 265C657.597 265 646.404 276.193 646.404 290C646.404 303.807 657.597 315 671.404 315Z" fill="url(#paint26_radial_2008_453)"/>
<path d="M671.403 306.663C679.292 306.663 685.688 299.773 685.688 291.273C685.688 282.774 679.292 275.883 671.403 275.883C663.513 275.883 657.118 282.774 657.118 291.273C657.118 299.773 663.513 306.663 671.403 306.663Z" />
<path d="M671.403 304.453C679.292 304.453 685.688 298.058 685.688 290.168C685.688 282.279 679.292 275.883 671.403 275.883C663.513 275.883 657.118 282.279 657.118 290.168C657.118 298.058 663.513 304.453 671.403 304.453Z" fill="white"/>
<path d="M671.403 301.734C676.992 301.734 681.522 296.879 681.522 290.891C681.522 284.903 676.992 280.049 671.403 280.049C665.815 280.049 661.284 284.903 661.284 290.891C661.284 296.879 665.815 301.734 671.403 301.734Z" />
<path d="M671.403 300.287C676.992 300.287 681.522 295.757 681.522 290.168C681.522 284.579 676.992 280.049 671.403 280.049C665.815 280.049 661.284 284.579 661.284 290.168C661.284 295.757 665.815 300.287 671.403 300.287Z" fill="#F0EA8F"/>
<path d="M671.405 294.502C674.597 294.502 677.185 291.914 677.185 288.722C677.185 285.529 674.597 282.941 671.405 282.941C668.213 282.941 665.625 285.529 665.625 288.722C665.625 291.914 668.213 294.502 671.405 294.502Z" fill="white"/>
<path style="mix-blend-mode:screen" d="M454.134 310C467.941 310 479.134 298.807 479.134 285C479.134 271.193 467.941 260 454.134 260C440.327 260 429.134 271.193 429.134 285C429.134 298.807 440.327 310 454.134 310Z" fill="url(#paint27_radial_2008_453)"/>
<path d="M454.132 301.663C462.021 301.663 468.417 294.773 468.417 286.273C468.417 277.774 462.021 270.883 454.132 270.883C446.243 270.883 439.847 277.774 439.847 286.273C439.847 294.773 446.243 301.663 454.132 301.663Z" />
<path d="M454.132 299.453C462.021 299.453 468.417 293.058 468.417 285.168C468.417 277.279 462.021 270.883 454.132 270.883C446.243 270.883 439.847 277.279 439.847 285.168C439.847 293.058 446.243 299.453 454.132 299.453Z" fill="white"/>
<path d="M454.133 296.734C459.721 296.734 464.252 291.879 464.252 285.891C464.252 279.903 459.721 275.049 454.133 275.049C448.544 275.049 444.014 279.903 444.014 285.891C444.014 291.879 448.544 296.734 454.133 296.734Z" />
<path d="M454.133 295.287C459.721 295.287 464.252 290.757 464.252 285.168C464.252 279.579 459.721 275.049 454.133 275.049C448.544 275.049 444.014 279.579 444.014 285.168C444.014 290.757 448.544 295.287 454.133 295.287Z" fill="#F0EA8F"/>
<path d="M454.134 289.502C457.327 289.502 459.915 286.914 459.915 283.722C459.915 280.529 457.327 277.941 454.134 277.941C450.942 277.941 448.354 280.529 448.354 283.722C448.354 286.914 450.942 289.502 454.134 289.502Z" fill="white"/>
<path style="mix-blend-mode:screen" d="M458.45 352.042C492.369 352.042 519.865 324.545 519.865 290.626C519.865 256.707 492.369 229.211 458.45 229.211C424.531 229.211 397.034 256.707 397.034 290.626C397.034 324.545 424.531 352.042 458.45 352.042Z" fill="url(#paint28_radial_2008_453)"/>
<path style="mix-blend-mode:screen" opacity="0.57" d="M458.453 361.948C469.102 361.948 477.736 330.017 477.736 290.628C477.736 251.238 469.102 219.307 458.453 219.307C447.803 219.307 439.17 251.238 439.17 290.628C439.17 330.017 447.803 361.948 458.453 361.948Z" fill="url(#paint29_radial_2008_453)"/>
<path style="mix-blend-mode:screen" d="M458.452 308.929C512.199 308.929 555.77 300.735 555.77 290.627C555.77 280.52 512.199 272.326 458.452 272.326C404.705 272.326 361.134 280.52 361.134 290.627C361.134 300.735 404.705 308.929 458.452 308.929Z" fill="url(#paint30_radial_2008_453)"/>
<path style="mix-blend-mode:screen" d="M549.243 381.421C552.468 378.196 514.434 334.933 464.292 284.791C414.15 234.648 370.887 196.615 367.662 199.84C364.436 203.065 402.47 246.328 452.612 296.471C502.754 346.613 546.017 384.646 549.243 381.421Z" fill="url(#paint31_radial_2008_453)"/>
<path style="mix-blend-mode:screen" d="M561.664 289C575.471 289 586.664 277.807 586.664 264C586.664 250.193 575.471 239 561.664 239C547.857 239 536.664 250.193 536.664 264C536.664 277.807 547.857 289 561.664 289Z" fill="url(#paint32_radial_2008_453)"/>
<path d="M561.663 280.663C569.552 280.663 575.948 273.773 575.948 265.273C575.948 256.774 569.552 249.883 561.663 249.883C553.773 249.883 547.378 256.774 547.378 265.273C547.378 273.773 553.773 280.663 561.663 280.663Z" />
<path d="M561.663 278.453C569.552 278.453 575.948 272.058 575.948 264.168C575.948 256.279 569.552 249.883 561.663 249.883C553.773 249.883 547.378 256.279 547.378 264.168C547.378 272.058 553.773 278.453 561.663 278.453Z" fill="white"/>
<path d="M561.663 275.734C567.252 275.734 571.782 270.879 571.782 264.891C571.782 258.903 567.252 254.049 561.663 254.049C556.075 254.049 551.544 258.903 551.544 264.891C551.544 270.879 556.075 275.734 561.663 275.734Z" />
<path d="M561.663 274.287C567.252 274.287 571.782 269.757 571.782 264.168C571.782 258.579 567.252 254.049 561.663 254.049C556.075 254.049 551.544 258.579 551.544 264.168C551.544 269.757 556.075 274.287 561.663 274.287Z" fill="#F0EA8F"/>
<path d="M561.665 268.502C564.857 268.502 567.445 265.914 567.445 262.722C567.445 259.529 564.857 256.941 561.665 256.941C558.473 256.941 555.885 259.529 555.885 262.722C555.885 265.914 558.473 268.502 561.665 268.502Z" fill="white"/>
<path style="mix-blend-mode:screen" d="M565.98 331.042C599.899 331.042 627.396 303.545 627.396 269.626C627.396 235.707 599.899 208.211 565.98 208.211C532.061 208.211 504.565 235.707 504.565 269.626C504.565 303.545 532.061 331.042 565.98 331.042Z" fill="url(#paint33_radial_2008_453)"/>
<path style="mix-blend-mode:screen" opacity="0.57" d="M565.983 340.948C576.633 340.948 585.266 309.017 585.266 269.628C585.266 230.238 576.633 198.307 565.983 198.307C555.334 198.307 546.7 230.238 546.7 269.628C546.7 309.017 555.334 340.948 565.983 340.948Z" fill="url(#paint34_radial_2008_453)"/>
<path style="mix-blend-mode:screen" d="M565.983 287.929C619.73 287.929 663.301 279.735 663.301 269.627C663.301 259.52 619.73 251.326 565.983 251.326C512.235 251.326 468.664 259.52 468.664 269.627C468.664 279.735 512.235 287.929 565.983 287.929Z" fill="url(#paint35_radial_2008_453)"/>
<path style="mix-blend-mode:screen" d="M656.773 360.421C659.998 357.196 621.965 313.933 571.823 263.791C521.68 213.648 478.417 175.615 475.192 178.84C471.967 182.065 510 225.328 560.143 275.471C610.285 325.613 653.548 363.646 656.773 360.421Z" fill="url(#paint36_radial_2008_453)"/>
<path style="mix-blend-mode:screen" d="M754 375C767.807 375 779 363.807 779 350C779 336.193 767.807 325 754 325C740.193 325 729 336.193 729 350C729 363.807 740.193 375 754 375Z" fill="url(#paint37_radial_2008_453)"/>
<path d="M753.998 366.663C761.888 366.663 768.283 359.773 768.283 351.273C768.283 342.774 761.888 335.883 753.998 335.883C746.109 335.883 739.713 342.774 739.713 351.273C739.713 359.773 746.109 366.663 753.998 366.663Z" />
<path d="M753.998 364.453C761.888 364.453 768.283 358.058 768.283 350.168C768.283 342.279 761.888 335.883 753.998 335.883C746.109 335.883 739.713 342.279 739.713 350.168C739.713 358.058 746.109 364.453 753.998 364.453Z" fill="white"/>
<path d="M753.999 361.734C759.588 361.734 764.118 356.879 764.118 350.891C764.118 344.903 759.588 340.049 753.999 340.049C748.41 340.049 743.88 344.903 743.88 350.891C743.88 356.879 748.41 361.734 753.999 361.734Z" />
<path d="M753.999 360.287C759.588 360.287 764.118 355.757 764.118 350.168C764.118 344.579 759.588 340.049 753.999 340.049C748.41 340.049 743.88 344.579 743.88 350.168C743.88 355.757 748.41 360.287 753.999 360.287Z" fill="#F0EA8F"/>
<path d="M754.001 354.502C757.193 354.502 759.781 351.914 759.781 348.722C759.781 345.529 757.193 342.941 754.001 342.941C750.808 342.941 748.22 345.529 748.22 348.722C748.22 351.914 750.808 354.502 754.001 354.502Z" fill="white"/>
<path style="mix-blend-mode:screen" d="M758.316 417.042C792.235 417.042 819.732 389.545 819.732 355.626C819.732 321.707 792.235 294.211 758.316 294.211C724.397 294.211 696.9 321.707 696.9 355.626C696.9 389.545 724.397 417.042 758.316 417.042Z" fill="url(#paint38_radial_2008_453)"/>
<path style="mix-blend-mode:screen" opacity="0.57" d="M758.319 426.948C768.969 426.948 777.602 395.017 777.602 355.628C777.602 316.238 768.969 284.307 758.319 284.307C747.669 284.307 739.036 316.238 739.036 355.628C739.036 395.017 747.669 426.948 758.319 426.948Z" fill="url(#paint39_radial_2008_453)"/>
<path style="mix-blend-mode:screen" d="M758.318 373.929C812.066 373.929 855.636 365.735 855.636 355.627C855.636 345.52 812.066 337.326 758.318 337.326C704.571 337.326 661 345.52 661 355.627C661 365.735 704.571 373.929 758.318 373.929Z" fill="url(#paint40_radial_2008_453)"/>
<path style="mix-blend-mode:screen" d="M849.109 446.421C852.334 443.196 814.3 399.933 764.158 349.791C714.016 299.648 670.753 261.615 667.528 264.84C664.303 268.065 702.336 311.328 752.478 361.471C802.621 411.613 845.883 449.646 849.109 446.421Z" fill="url(#paint41_radial_2008_453)"/>
<path style="mix-blend-mode:screen" d="M756.105 751C769.912 751 781.105 739.807 781.105 726C781.105 712.193 769.912 701 756.105 701C742.298 701 731.105 712.193 731.105 726C731.105 739.807 742.298 751 756.105 751Z" fill="url(#paint42_radial_2008_453)"/>
<path d="M756.104 742.663C763.993 742.663 770.389 735.773 770.389 727.273C770.389 718.774 763.993 711.883 756.104 711.883C748.214 711.883 741.819 718.774 741.819 727.273C741.819 735.773 748.214 742.663 756.104 742.663Z" />
<path d="M756.104 740.453C763.993 740.453 770.389 734.058 770.389 726.168C770.389 718.279 763.993 711.883 756.104 711.883C748.214 711.883 741.819 718.279 741.819 726.168C741.819 734.058 748.214 740.453 756.104 740.453Z" fill="white"/>
<path d="M756.104 737.734C761.693 737.734 766.223 732.879 766.223 726.891C766.223 720.903 761.693 716.049 756.104 716.049C750.516 716.049 745.985 720.903 745.985 726.891C745.985 732.879 750.516 737.734 756.104 737.734Z" />
<path d="M756.104 736.287C761.693 736.287 766.223 731.757 766.223 726.168C766.223 720.579 761.693 716.049 756.104 716.049C750.516 716.049 745.985 720.579 745.985 726.168C745.985 731.757 750.516 736.287 756.104 736.287Z" fill="#F0EA8F"/>
<path d="M756.106 730.502C759.298 730.502 761.886 727.914 761.886 724.722C761.886 721.529 759.298 718.941 756.106 718.941C752.914 718.941 750.326 721.529 750.326 724.722C750.326 727.914 752.914 730.502 756.106 730.502Z" fill="white"/>
<path style="mix-blend-mode:screen" d="M671.404 811.076C685.211 811.076 696.404 799.883 696.404 786.076C696.404 772.269 685.211 761.076 671.404 761.076C657.597 761.076 646.404 772.269 646.404 786.076C646.404 799.883 657.597 811.076 671.404 811.076Z" fill="url(#paint43_radial_2008_453)"/>
<path d="M671.403 802.739C679.292 802.739 685.688 795.849 685.688 787.349C685.688 778.85 679.292 771.959 671.403 771.959C663.513 771.959 657.118 778.85 657.118 787.349C657.118 795.849 663.513 802.739 671.403 802.739Z" />
<path d="M671.403 800.529C679.292 800.529 685.688 794.134 685.688 786.244C685.688 778.355 679.292 771.959 671.403 771.959C663.513 771.959 657.118 778.355 657.118 786.244C657.118 794.134 663.513 800.529 671.403 800.529Z" fill="white"/>
<path d="M671.403 797.81C676.992 797.81 681.522 792.955 681.522 786.967C681.522 780.979 676.992 776.125 671.403 776.125C665.815 776.125 661.284 780.979 661.284 786.967C661.284 792.955 665.815 797.81 671.403 797.81Z" />
<path d="M671.403 796.363C676.992 796.363 681.522 791.833 681.522 786.244C681.522 780.656 676.992 776.125 671.403 776.125C665.815 776.125 661.284 780.656 661.284 786.244C661.284 791.833 665.815 796.363 671.403 796.363Z" fill="#F0EA8F"/>
<path d="M671.405 790.578C674.597 790.578 677.185 787.99 677.185 784.798C677.185 781.605 674.597 779.018 671.405 779.018C668.213 779.018 665.625 781.605 665.625 784.798C665.625 787.99 668.213 790.578 671.405 790.578Z" fill="white"/>
<path style="mix-blend-mode:screen" d="M306.832 451.375C320.639 451.375 331.832 440.182 331.832 426.375C331.832 412.568 320.639 401.375 306.832 401.375C293.025 401.375 281.832 412.568 281.832 426.375C281.832 440.182 293.025 451.375 306.832 451.375Z" fill="url(#paint44_radial_2008_453)"/>
<path d="M306.83 443.038C314.719 443.038 321.115 436.148 321.115 427.648C321.115 419.149 314.719 412.258 306.83 412.258C298.941 412.258 292.545 419.149 292.545 427.648C292.545 436.148 298.941 443.038 306.83 443.038Z" />
<path d="M306.83 440.828C314.719 440.828 321.115 434.433 321.115 426.543C321.115 418.654 314.719 412.258 306.83 412.258C298.941 412.258 292.545 418.654 292.545 426.543C292.545 434.433 298.941 440.828 306.83 440.828Z" fill="white"/>
<path d="M306.831 438.109C312.419 438.109 316.95 433.254 316.95 427.266C316.95 421.278 312.419 416.424 306.831 416.424C301.242 416.424 296.712 421.278 296.712 427.266C296.712 433.254 301.242 438.109 306.831 438.109Z" />
<path d="M306.831 436.662C312.419 436.662 316.95 432.132 316.95 426.543C316.95 420.954 312.419 416.424 306.831 416.424C301.242 416.424 296.712 420.954 296.712 426.543C296.712 432.132 301.242 436.662 306.831 436.662Z" fill="#F0EA8F"/>
<path d="M306.832 430.877C310.025 430.877 312.613 428.289 312.613 425.097C312.613 421.904 310.025 419.316 306.832 419.316C303.64 419.316 301.052 421.904 301.052 425.097C301.052 428.289 303.64 430.877 306.832 430.877Z" fill="white"/>
<path style="mix-blend-mode:screen" d="M311.148 493.417C345.067 493.417 372.563 465.92 372.563 432.001C372.563 398.082 345.067 370.586 311.148 370.586C277.229 370.586 249.732 398.082 249.732 432.001C249.732 465.92 277.229 493.417 311.148 493.417Z" fill="url(#paint45_radial_2008_453)"/>
<path style="mix-blend-mode:screen" opacity="0.57" d="M311.151 503.323C321.8 503.323 330.434 471.392 330.434 432.003C330.434 392.613 321.8 360.682 311.151 360.682C300.501 360.682 291.868 392.613 291.868 432.003C291.868 471.392 300.501 503.323 311.151 503.323Z" fill="url(#paint46_radial_2008_453)"/>
<path style="mix-blend-mode:screen" d="M311.15 450.304C364.897 450.304 408.468 442.11 408.468 432.002C408.468 421.895 364.897 413.701 311.15 413.701C257.403 413.701 213.832 421.895 213.832 432.002C213.832 442.11 257.403 450.304 311.15 450.304Z" fill="url(#paint47_radial_2008_453)"/>
<path style="mix-blend-mode:screen" d="M401.941 522.796C405.166 519.571 367.132 476.308 316.99 426.166C266.848 376.023 223.585 337.99 220.36 341.215C217.134 344.441 255.168 387.703 305.31 437.846C355.452 487.988 398.715 526.021 401.941 522.796Z" fill="url(#paint48_radial_2008_453)"/>
<path style="mix-blend-mode:screen" d="M370.172 363.27C383.979 363.27 395.172 352.077 395.172 338.27C395.172 324.463 383.979 313.27 370.172 313.27C356.365 313.27 345.172 324.463 345.172 338.27C345.172 352.077 356.365 363.27 370.172 363.27Z" fill="url(#paint49_radial_2008_453)"/>
<path d="M370.17 354.934C378.059 354.934 384.455 348.043 384.455 339.543C384.455 331.044 378.059 324.153 370.17 324.153C362.28 324.153 355.885 331.044 355.885 339.543C355.885 348.043 362.28 354.934 370.17 354.934Z" />
<path d="M370.17 352.723C378.059 352.723 384.455 346.328 384.455 338.438C384.455 330.549 378.059 324.153 370.17 324.153C362.28 324.153 355.885 330.549 355.885 338.438C355.885 346.328 362.28 352.723 370.17 352.723Z" fill="white"/>
<path d="M370.171 350.004C375.759 350.004 380.29 345.149 380.29 339.161C380.29 333.173 375.759 328.319 370.171 328.319C364.582 328.319 360.051 333.173 360.051 339.161C360.051 345.149 364.582 350.004 370.171 350.004Z" />
<path d="M370.171 348.557C375.759 348.557 380.29 344.027 380.29 338.438C380.29 332.85 375.759 328.319 370.171 328.319C364.582 328.319 360.051 332.85 360.051 338.438C360.051 344.027 364.582 348.557 370.171 348.557Z" fill="#F0EA8F"/>
<path d="M370.172 342.772C373.364 342.772 375.952 340.184 375.952 336.992C375.952 333.8 373.364 331.212 370.172 331.212C366.98 331.212 364.392 333.8 364.392 336.992C364.392 340.184 366.98 342.772 370.172 342.772Z" fill="white"/>
<path style="mix-blend-mode:screen" d="M366 762C379.807 762 391 750.807 391 737C391 723.193 379.807 712 366 712C352.193 712 341 723.193 341 737C341 750.807 352.193 762 366 762Z" fill="url(#paint50_radial_2008_453)"/>
<path d="M365.998 753.663C373.888 753.663 380.283 746.773 380.283 738.273C380.283 729.774 373.888 722.883 365.998 722.883C358.109 722.883 351.713 729.774 351.713 738.273C351.713 746.773 358.109 753.663 365.998 753.663Z" />
<path d="M365.998 751.453C373.888 751.453 380.283 745.058 380.283 737.168C380.283 729.279 373.888 722.883 365.998 722.883C358.109 722.883 351.713 729.279 351.713 737.168C351.713 745.058 358.109 751.453 365.998 751.453Z" fill="white"/>
<path d="M365.999 748.734C371.588 748.734 376.118 743.879 376.118 737.891C376.118 731.903 371.588 727.049 365.999 727.049C360.41 727.049 355.88 731.903 355.88 737.891C355.88 743.879 360.41 748.734 365.999 748.734Z" />
<path d="M365.999 747.287C371.588 747.287 376.118 742.757 376.118 737.168C376.118 731.579 371.588 727.049 365.999 727.049C360.41 727.049 355.88 731.579 355.88 737.168C355.88 742.757 360.41 747.287 365.999 747.287Z" fill="#F0EA8F"/>
<path d="M366.001 741.502C369.193 741.502 371.781 738.914 371.781 735.722C371.781 732.529 369.193 729.941 366.001 729.941C362.808 729.941 360.22 732.529 360.22 735.722C360.22 738.914 362.808 741.502 366.001 741.502Z" fill="white"/>
<path style="mix-blend-mode:screen" d="M464.891 822C478.698 822 489.891 810.807 489.891 797C489.891 783.193 478.698 772 464.891 772C451.084 772 439.891 783.193 439.891 797C439.891 810.807 451.084 822 464.891 822Z" fill="url(#paint51_radial_2008_453)"/>
<path d="M464.889 813.663C472.778 813.663 479.174 806.773 479.174 798.273C479.174 789.774 472.778 782.883 464.889 782.883C457 782.883 450.604 789.774 450.604 798.273C450.604 806.773 457 813.663 464.889 813.663Z" />
<path d="M464.889 811.453C472.778 811.453 479.174 805.058 479.174 797.168C479.174 789.279 472.778 782.883 464.889 782.883C457 782.883 450.604 789.279 450.604 797.168C450.604 805.058 457 811.453 464.889 811.453Z" fill="white"/>
<path d="M464.89 808.734C470.478 808.734 475.009 803.879 475.009 797.891C475.009 791.903 470.478 787.049 464.89 787.049C459.301 787.049 454.771 791.903 454.771 797.891C454.771 803.879 459.301 808.734 464.89 808.734Z" />
<path d="M464.89 807.287C470.478 807.287 475.009 802.757 475.009 797.168C475.009 791.579 470.478 787.049 464.89 787.049C459.301 787.049 454.771 791.579 454.771 797.168C454.771 802.757 459.301 807.287 464.89 807.287Z" fill="#F0EA8F"/>
<path d="M464.891 801.502C468.084 801.502 470.672 798.914 470.672 795.722C470.672 792.529 468.084 789.941 464.891 789.941C461.699 789.941 459.111 792.529 459.111 795.722C459.111 798.914 461.699 801.502 464.891 801.502Z" fill="white"/>
<defs>
<radialGradient id="paint0_radial_2008_453" cx="0" cy="0" r="1" gradientUnits="userSpaceOnUse" gradientTransform="translate(575.22 812) scale(25)">
<stop stop-color="#FCEE21"/>
<stop offset="1"/>
</radialGradient>
<radialGradient id="paint1_radial_2008_453" cx="0" cy="0" r="1" gradientUnits="userSpaceOnUse" gradientTransform="translate(579.53 817.626) scale(59.7698)">
<stop stop-color="#29ABE2"/>
<stop offset="0.49" stop-color="#155976"/>
<stop offset="1"/>
</radialGradient>
<radialGradient id="paint2_radial_2008_453" cx="0" cy="0" r="1" gradientUnits="userSpaceOnUse" gradientTransform="translate(601.627 816.052) scale(18.6188 69.2388)">
<stop stop-color="#BFEAFF"/>
<stop offset="0.43" stop-color="#6E8793"/>
<stop offset="1"/>
</radialGradient>
<radialGradient id="paint3_radial_2008_453" cx="0" cy="0" r="1" gradientUnits="userSpaceOnUse" gradientTransform="translate(580.937 849.299) rotate(-90) scale(18.037 94.8397)">
<stop stop-color="#BFEAFF"/>
<stop offset="0.43" stop-color="#6E8793"/>
<stop offset="1"/>
</radialGradient>
<radialGradient id="paint4_radial_2008_453" cx="0" cy="0" r="1" gradientUnits="userSpaceOnUse" gradientTransform="translate(573.753 821.753) rotate(135) scale(8.14407 125.07)">
<stop stop-color="#B274AA"/>
<stop offset="0.61" stop-color="#482F44"/>
<stop offset="1"/>
</radialGradient>
<radialGradient id="paint5_radial_2008_453" cx="0" cy="0" r="1" gradientUnits="userSpaceOnUse" gradientTransform="translate(307.005 652) scale(25)">
<stop stop-color="#FCEE21"/>
<stop offset="1"/>
</radialGradient>
<radialGradient id="paint6_radial_2008_453" cx="0" cy="0" r="1" gradientUnits="userSpaceOnUse" gradientTransform="translate(311.316 657.626) scale(59.7698 59.7698)">
<stop stop-color="#29ABE2"/>
<stop offset="0.49" stop-color="#155976"/>
<stop offset="1"/>
</radialGradient>
<radialGradient id="paint7_radial_2008_453" cx="0" cy="0" r="1" gradientUnits="userSpaceOnUse" gradientTransform="translate(333.412 656.052) scale(18.6188 69.2388)">
<stop stop-color="#BFEAFF"/>
<stop offset="0.43" stop-color="#6E8793"/>
<stop offset="1"/>
</radialGradient>
<radialGradient id="paint8_radial_2008_453" cx="0" cy="0" r="1" gradientUnits="userSpaceOnUse" gradientTransform="translate(312.722 689.299) rotate(-90) scale(18.037 94.8397)">
<stop stop-color="#BFEAFF"/>
<stop offset="0.43" stop-color="#6E8793"/>
<stop offset="1"/>
</radialGradient>
<radialGradient id="paint9_radial_2008_453" cx="0" cy="0" r="1" gradientUnits="userSpaceOnUse" gradientTransform="translate(305.538 661.753) rotate(135) scale(8.14407 125.07)">
<stop stop-color="#B274AA"/>
<stop offset="0.61" stop-color="#482F44"/>
<stop offset="1"/>
</radialGradient>
<radialGradient id="paint10_radial_2008_453" cx="0" cy="0" r="1" gradientUnits="userSpaceOnUse" gradientTransform="translate(813.005 634) scale(25)">
<stop stop-color="#FCEE21"/>
<stop offset="1"/>
</radialGradient>
<radialGradient id="paint11_radial_2008_453" cx="0" cy="0" r="1" gradientUnits="userSpaceOnUse" gradientTransform="translate(817.316 639.626) scale(59.7698 59.7698)">
<stop stop-color="#29ABE2"/>
<stop offset="0.49" stop-color="#155976"/>
<stop offset="1"/>
</radialGradient>
<radialGradient id="paint12_radial_2008_453" cx="0" cy="0" r="1" gradientUnits="userSpaceOnUse" gradientTransform="translate(839.412 638.052) scale(18.6188 69.2388)">
<stop stop-color="#BFEAFF"/>
<stop offset="0.43" stop-color="#6E8793"/>
<stop offset="1"/>
</radialGradient>
<radialGradient id="paint13_radial_2008_453" cx="0" cy="0" r="1" gradientUnits="userSpaceOnUse" gradientTransform="translate(818.722 671.299) rotate(-90) scale(18.037 94.8397)">
<stop stop-color="#BFEAFF"/>
<stop offset="0.43" stop-color="#6E8793"/>
<stop offset="1"/>
</radialGradient>
<radialGradient id="paint14_radial_2008_453" cx="0" cy="0" r="1" gradientUnits="userSpaceOnUse" gradientTransform="translate(811.538 643.753) rotate(135) scale(8.14407 125.07)">
<stop stop-color="#B274AA"/>
<stop offset="0.61" stop-color="#482F44"/>
<stop offset="1"/>
</radialGradient>
<radialGradient id="paint15_radial_2008_453" cx="0" cy="0" r="1" gradientUnits="userSpaceOnUse" gradientTransform="translate(809.781 433.992) scale(25)">
<stop stop-color="#FCEE21"/>
<stop offset="1"/>
</radialGradient>
<radialGradient id="paint16_radial_2008_453" cx="0" cy="0" r="1" gradientUnits="userSpaceOnUse" gradientTransform="translate(814.092 439.618) scale(59.7698)">
<stop stop-color="#29ABE2"/>
<stop offset="0.49" stop-color="#155976"/>
<stop offset="1"/>
</radialGradient>
<radialGradient id="paint17_radial_2008_453" cx="0" cy="0" r="1" gradientUnits="userSpaceOnUse" gradientTransform="translate(836.189 438.044) scale(18.6188 69.2388)">
<stop stop-color="#BFEAFF"/>
<stop offset="0.43" stop-color="#6E8793"/>
<stop offset="1"/>
</radialGradient>
<radialGradient id="paint18_radial_2008_453" cx="0" cy="0" r="1" gradientUnits="userSpaceOnUse" gradientTransform="translate(815.498 471.291) rotate(-90) scale(18.037 94.8397)">
<stop stop-color="#BFEAFF"/>
<stop offset="0.43" stop-color="#6E8793"/>
<stop offset="1"/>
</radialGradient>
<radialGradient id="paint19_radial_2008_453" cx="0" cy="0" r="1" gradientUnits="userSpaceOnUse" gradientTransform="translate(808.315 443.744) rotate(135) scale(8.14407 125.07)">
<stop stop-color="#B274AA"/>
<stop offset="0.61" stop-color="#482F44"/>
<stop offset="1"/>
</radialGradient>
<radialGradient id="paint20_radial_2008_453" cx="0" cy="0" r="1" gradientUnits="userSpaceOnUse" gradientTransform="translate(282.005 537.052) scale(25)">
<stop stop-color="#FCEE21"/>
<stop offset="1"/>
</radialGradient>
<radialGradient id="paint21_radial_2008_453" cx="0" cy="0" r="1" gradientUnits="userSpaceOnUse" gradientTransform="translate(286.316 542.678) scale(59.7698 59.7698)">
<stop stop-color="#29ABE2"/>
<stop offset="0.49" stop-color="#155976"/>
<stop offset="1"/>
</radialGradient>
<radialGradient id="paint22_radial_2008_453" cx="0" cy="0" r="1" gradientUnits="userSpaceOnUse" gradientTransform="translate(308.412 541.105) scale(18.6188 69.2388)">
<stop stop-color="#BFEAFF"/>
<stop offset="0.43" stop-color="#6E8793"/>
<stop offset="1"/>
</radialGradient>
<radialGradient id="paint23_radial_2008_453" cx="0" cy="0" r="1" gradientUnits="userSpaceOnUse" gradientTransform="translate(287.722 574.352) rotate(-90) scale(18.037 94.8397)">
<stop stop-color="#BFEAFF"/>
<stop offset="0.43" stop-color="#6E8793"/>
<stop offset="1"/>
</radialGradient>
<radialGradient id="paint24_radial_2008_453" cx="0" cy="0" r="1" gradientUnits="userSpaceOnUse" gradientTransform="translate(280.538 546.805) rotate(135) scale(8.14407 125.07)">
<stop stop-color="#B274AA"/>
<stop offset="0.61" stop-color="#482F44"/>
<stop offset="1"/>
</radialGradient>
<radialGradient id="paint25_radial_2008_453" cx="0" cy="0" r="1" gradientUnits="userSpaceOnUse" gradientTransform="translate(830.653 536.183) scale(25 25)">
<stop stop-color="#FCEE21"/>
<stop offset="1"/>
</radialGradient>
<radialGradient id="paint26_radial_2008_453" cx="0" cy="0" r="1" gradientUnits="userSpaceOnUse" gradientTransform="translate(671.409 290) scale(25)">
<stop stop-color="#FCEE21"/>
<stop offset="1"/>
</radialGradient>
<radialGradient id="paint27_radial_2008_453" cx="0" cy="0" r="1" gradientUnits="userSpaceOnUse" gradientTransform="translate(454.139 285) scale(25)">
<stop stop-color="#FCEE21"/>
<stop offset="1"/>
</radialGradient>
<radialGradient id="paint28_radial_2008_453" cx="0" cy="0" r="1" gradientUnits="userSpaceOnUse" gradientTransform="translate(458.45 290.626) scale(59.7698)">
<stop stop-color="#29ABE2"/>
<stop offset="0.49" stop-color="#155976"/>
<stop offset="1"/>
</radialGradient>
<radialGradient id="paint29_radial_2008_453" cx="0" cy="0" r="1" gradientUnits="userSpaceOnUse" gradientTransform="translate(480.546 289.052) scale(18.6188 69.2388)">
<stop stop-color="#BFEAFF"/>
<stop offset="0.43" stop-color="#6E8793"/>
<stop offset="1"/>
</radialGradient>
<radialGradient id="paint30_radial_2008_453" cx="0" cy="0" r="1" gradientUnits="userSpaceOnUse" gradientTransform="translate(459.856 322.299) rotate(-90) scale(18.037 94.8397)">
<stop stop-color="#BFEAFF"/>
<stop offset="0.43" stop-color="#6E8793"/>
<stop offset="1"/>
</radialGradient>
<radialGradient id="paint31_radial_2008_453" cx="0" cy="0" r="1" gradientUnits="userSpaceOnUse" gradientTransform="translate(452.672 294.753) rotate(135) scale(8.14407 125.07)">
<stop stop-color="#B274AA"/>
<stop offset="0.61" stop-color="#482F44"/>
<stop offset="1"/>
</radialGradient>
<radialGradient id="paint32_radial_2008_453" cx="0" cy="0" r="1" gradientUnits="userSpaceOnUse" gradientTransform="translate(561.669 264) scale(25)">
<stop stop-color="#FCEE21"/>
<stop offset="1"/>
</radialGradient>
<radialGradient id="paint33_radial_2008_453" cx="0" cy="0" r="1" gradientUnits="userSpaceOnUse" gradientTransform="translate(565.98 269.626) scale(59.7698)">
<stop stop-color="#29ABE2"/>
<stop offset="0.49" stop-color="#155976"/>
<stop offset="1"/>
</radialGradient>
<radialGradient id="paint34_radial_2008_453" cx="0" cy="0" r="1" gradientUnits="userSpaceOnUse" gradientTransform="translate(588.077 268.052) scale(18.6188 69.2388)">
<stop stop-color="#BFEAFF"/>
<stop offset="0.43" stop-color="#6E8793"/>
<stop offset="1"/>
</radialGradient>
<radialGradient id="paint35_radial_2008_453" cx="0" cy="0" r="1" gradientUnits="userSpaceOnUse" gradientTransform="translate(567.387 301.299) rotate(-90) scale(18.037 94.8397)">
<stop stop-color="#BFEAFF"/>
<stop offset="0.43" stop-color="#6E8793"/>
<stop offset="1"/>
</radialGradient>
<radialGradient id="paint36_radial_2008_453" cx="0" cy="0" r="1" gradientUnits="userSpaceOnUse" gradientTransform="translate(560.203 273.753) rotate(135) scale(8.14407 125.07)">
<stop stop-color="#B274AA"/>
<stop offset="0.61" stop-color="#482F44"/>
<stop offset="1"/>
</radialGradient>
<radialGradient id="paint37_radial_2008_453" cx="0" cy="0" r="1" gradientUnits="userSpaceOnUse" gradientTransform="translate(754.005 350) scale(25)">
<stop stop-color="#FCEE21"/>
<stop offset="1"/>
</radialGradient>
<radialGradient id="paint38_radial_2008_453" cx="0" cy="0" r="1" gradientUnits="userSpaceOnUse" gradientTransform="translate(758.316 355.626) scale(59.7698 59.7698)">
<stop stop-color="#29ABE2"/>
<stop offset="0.49" stop-color="#155976"/>
<stop offset="1"/>
</radialGradient>
<radialGradient id="paint39_radial_2008_453" cx="0" cy="0" r="1" gradientUnits="userSpaceOnUse" gradientTransform="translate(780.412 354.052) scale(18.6188 69.2388)">
<stop stop-color="#BFEAFF"/>
<stop offset="0.43" stop-color="#6E8793"/>
<stop offset="1"/>
</radialGradient>
<radialGradient id="paint40_radial_2008_453" cx="0" cy="0" r="1" gradientUnits="userSpaceOnUse" gradientTransform="translate(759.722 387.299) rotate(-90) scale(18.037 94.8397)">
<stop stop-color="#BFEAFF"/>
<stop offset="0.43" stop-color="#6E8793"/>
<stop offset="1"/>
</radialGradient>
<radialGradient id="paint41_radial_2008_453" cx="0" cy="0" r="1" gradientUnits="userSpaceOnUse" gradientTransform="translate(752.538 359.753) rotate(135) scale(8.14407 125.07)">
<stop stop-color="#B274AA"/>
<stop offset="0.61" stop-color="#482F44"/>
<stop offset="1"/>
</radialGradient>
<radialGradient id="paint42_radial_2008_453" cx="0" cy="0" r="1" gradientUnits="userSpaceOnUse" gradientTransform="translate(756.11 726) scale(25)">
<stop stop-color="#FCEE21"/>
<stop offset="1"/>
</radialGradient>
<radialGradient id="paint43_radial_2008_453" cx="0" cy="0" r="1" gradientUnits="userSpaceOnUse" gradientTransform="translate(671.409 786.076) scale(25)">
<stop stop-color="#FCEE21"/>
<stop offset="1"/>
</radialGradient>
<radialGradient id="paint44_radial_2008_453" cx="0" cy="0" r="1" gradientUnits="userSpaceOnUse" gradientTransform="translate(306.837 426.375) scale(25)">
<stop stop-color="#FCEE21"/>
<stop offset="1"/>
</radialGradient>
<radialGradient id="paint45_radial_2008_453" cx="0" cy="0" r="1" gradientUnits="userSpaceOnUse" gradientTransform="translate(311.148 432.001) scale(59.7698)">
<stop stop-color="#29ABE2"/>
<stop offset="0.49" stop-color="#155976"/>
<stop offset="1"/>
</radialGradient>
<radialGradient id="paint46_radial_2008_453" cx="0" cy="0" r="1" gradientUnits="userSpaceOnUse" gradientTransform="translate(333.244 430.427) scale(18.6188 69.2388)">
<stop stop-color="#BFEAFF"/>
<stop offset="0.43" stop-color="#6E8793"/>
<stop offset="1"/>
</radialGradient>
<radialGradient id="paint47_radial_2008_453" cx="0" cy="0" r="1" gradientUnits="userSpaceOnUse" gradientTransform="translate(312.554 463.674) rotate(-90) scale(18.037 94.8397)">
<stop stop-color="#BFEAFF"/>
<stop offset="0.43" stop-color="#6E8793"/>
<stop offset="1"/>
</radialGradient>
<radialGradient id="paint48_radial_2008_453" cx="0" cy="0" r="1" gradientUnits="userSpaceOnUse" gradientTransform="translate(305.37 436.128) rotate(135) scale(8.14407 125.07)">
<stop stop-color="#B274AA"/>
<stop offset="0.61" stop-color="#482F44"/>
<stop offset="1"/>
</radialGradient>
<radialGradient id="paint49_radial_2008_453" cx="0" cy="0" r="1" gradientUnits="userSpaceOnUse" gradientTransform="translate(370.177 338.27) scale(25)">
<stop stop-color="#FCEE21"/>
<stop offset="1"/>
</radialGradient>
<radialGradient id="paint50_radial_2008_453" cx="0" cy="0" r="1" gradientUnits="userSpaceOnUse" gradientTransform="translate(366.005 737) scale(25)">
<stop stop-color="#FCEE21"/>
<stop offset="1"/>
</radialGradient>
<radialGradient id="paint51_radial_2008_453" cx="0" cy="0" r="1" gradientUnits="userSpaceOnUse" gradientTransform="translate(464.896 797) scale(25)">
<stop stop-color="#FCEE21"/>
<stop offset="1"/>
</radialGradient>
</defs>
</svg>
